<?xml version="1.0" encoding="utf-8"?>
<!-- Generator: Adobe Illustrator 25.2.0, SVG Export Plug-In . SVG Version: 6.00 Build 0)  -->
<svg version="1.1" id="Layer_1" xmlns="http://www.w3.org/2000/svg" xmlns:xlink="http://www.w3.org/1999/xlink" x="0px" y="0px"
	 viewBox="0 0 439.66 175.92" style="enable-background:new 0 0 439.66 175.92;" xml:space="preserve">
<style type="text/css">
	.st0{fill:#020000;}
</style>
<g>
	<path class="st0" d="M159.68,71.66c-0.09-0.2-0.17-0.39-0.25-0.58c-0.46-1.07-0.8-2.03-1.02-2.89l-0.2-0.54l-0.49-1.46l-0.19-0.74
		l-0.25-0.73c-0.94-1.57-1.58-3.07-1.9-4.5l-0.45-0.49l-0.44-0.74l-0.63-1.71c-0.26-0.16-0.41-0.34-0.44-0.54l-0.2-0.49l-0.44-0.48
		l-0.19-0.74l-2.16-3.23c-14.28-19.6-31.79-28.6-52.53-27c-14.15,2.07-25.77,7.57-34.86,16.51c-0.7,0.67-1.38,1.38-2.04,2.1
		c11.02,3.97,22.06,7.88,33.12,11.75c2.94-1.11,5.98-1.67,9.11-1.67c1.37,0,2.75,0.11,4.16,0.32c4.44,0.92,8.39,2.46,11.84,4.63
		c3.51,2.21,6.51,5.06,9,8.55l22.93,7.85h8.32C159.68,73.6,159.75,72.54,159.68,71.66z M129.42,129.55
		c-3.85-1.26-7.7-2.52-11.56-3.76c-3.3,2.05-6.66,3.35-10.08,3.92c-5.96,0.99-12.11-0.26-18.45-3.75c-2.21-1.44-4.22-3-6.02-4.67
		c-0.01,0-0.01-0.01-0.01-0.01c-2.71-2.53-4.96-5.31-6.75-8.37c-1.24-0.38-2.48-0.75-3.72-1.12c-9.84-2.95-19.7-5.83-29.6-8.6
		c0.18,1.27,0.4,2.54,0.66,3.8c1.71,8.45,5.02,16.67,9.93,24.65c14.45,20.22,32.09,29.4,52.93,27.54
		c15.08-1.85,27.32-7.75,36.71-17.72c1.67-1.76,3.25-3.65,4.73-5.67C141.94,133.68,135.68,131.6,129.42,129.55z M153.03,114.81
		h-12.92c-1.95,0.1-3.62,0.02-4.99-0.24c-1.2,0.88-2.35,1.45-3.42,1.71l-0.44,0.49h-0.64c-1.63,1.01-3.06,1.68-4.3,2
		c-0.05,0.05-0.1,0.11-0.15,0.16c-1.96,2.03-3.95,3.79-5.95,5.26c6.23,2.1,12.47,4.18,18.71,6.23c3.53,1.16,7.07,2.31,10.61,3.45
		c1.32-1.92,2.56-3.95,3.71-6.08c1.14-2.09,2.21-4.28,3.2-6.57v-6.16C155.11,114.76,153.97,114.68,153.03,114.81z M81.5,63.93
		C71.84,60.95,62.17,58,52.49,55.1c-0.54,0.94-1.07,1.91-1.57,2.9c-0.88,1.67-1.7,3.41-2.48,5.2c-4.08,10.59-6.06,20.86-5.93,30.83
		c0,0.73,0.02,1.46,0.06,2.18c10.49,4.11,21.03,8.04,31.61,11.86c-0.73-1.8-1.33-3.68-1.78-5.64c-0.77-3.27-1.16-6.76-1.17-10.46
		c0.21-9.7,2.6-17.8,7.19-24.27C79.35,66.38,80.38,65.12,81.5,63.93z"/>
	<path class="st0" d="M199.7,60.17l-0.59,0.24c-1.27-0.23-2.38-0.31-3.33-0.24h-27.44c-0.72,0.23-1.47,0.31-2.25,0.24l-1.96,0.25
		v18.57c4.7,1.58,9.41,3.17,14.11,4.77l22.29,7.41v-31L199.7,60.17z M164.13,89.96v40.6l-0.26,0.8l-0.03,0.08l0.29,0.69v6.41
		c10.43,3.3,20.89,6.53,31.39,9.65c1.67,0.5,3.34,1,5.01,1.49v-47.92L164.13,89.96z M164.13,141.23v15.7h2.25
		c0.59-0.16,1.14-0.24,1.67-0.24l0.53-0.2h1.72c1.5-0.33,2.9-0.47,4.2-0.44c1.53-0.33,2.84-0.49,3.92-0.49l1.37-0.2h1.12l1.13-0.24
		c1.07-0.13,2-0.2,2.78-0.2l1.42-0.24h1.13c0.49-0.16,0.96-0.24,1.42-0.24h0.83c0.26-0.17,0.54-0.23,0.83-0.2h1.13
		c0.26-0.16,0.53-0.25,0.83-0.25l1.42-0.19c0.91-0.03,1.64-0.12,2.2-0.25l2.15-0.21c-4.21-1.54-8.43-3.06-12.65-4.57
		C178.41,146.21,171.28,143.7,164.13,141.23z M264.07,69.07l-0.24-1.91v-0.83c-0.56-1.04-0.83-2.12-0.83-3.23
		c-0.36-0.65-0.56-1.29-0.59-1.9c-0.76-1.06-1.33-2.08-1.72-3.08l-6.89-2.3l-37.4-12.07c-12.5-3.9-24.97-7.92-37.52-11.7
		c-2.74-0.84-5.48-1.68-8.22-2.51h-0.95c-2.19-0.32-4.05-0.42-5.58-0.29v28.91h1.96c2.15,0.33,3.93,0.43,5.33,0.3h6.41l5.62,0.24
		h25.49c4.44-0.2,8.07-0.02,10.91,0.54c6.98,3.42,10.89,8.61,11.74,15.55c-0.71,8-4.02,13.45-9.92,16.34
		c-3.8,1.88-8.67,2.69-14.62,2.44l22.63,7.52l20.91,6.78c1.8-1.67,3.51-3.52,5.11-5.52c0.57-0.7,1.13-1.43,1.67-2.17l0.3-1.9
		l1.66-1.08C264.19,87.74,265.77,78.37,264.07,69.07z M210.49,104.99l-6.34-2.06v11.44c-0.07,1.7,0.03,3.15,0.29,4.35h0.83l0.3,0.54
		c1.43,0.56,2.56,1.11,3.37,1.67c8.04,0.57,15.37-0.08,21.97-1.96c3.46-0.98,6.72-2.3,9.78-3.95L210.49,104.99z M256.25,50.82
		l-0.54-0.83l-0.59-0.29c-0.39-1.08-0.94-1.97-1.66-2.69c-0.62-0.49-1.1-1.04-1.42-1.66c-1.74-1.3-3.02-2.63-3.83-3.99
		c-0.03-0.04-0.06-0.08-0.08-0.12l-0.7-0.13h-0.01l-0.66-0.12l-0.06-0.11l-0.24-0.43c-1.04-0.49-1.89-1.12-2.54-1.9
		c-2.02-0.72-3.6-1.73-4.75-3.04l-1.95-0.24l-5.04-2.2c-2.55-0.23-4.7-0.87-6.46-1.91h-2.49l-0.88-0.29h-10.08l-1.13-0.25h-7.24
		l-0.88-0.29h-8.12l-0.15-0.03c11.67,4.13,23.39,8.06,35.09,12.08l27,9.01L256.25,50.82z"/>
	<path class="st0" d="M299.98,29.06l-1.22,0.48l-1.52,0.25h-1.47l-1.76,0.49l-1.71,0.24l-1.47,0.25l-1.27,0.24l-1.71,0.3l-1.22,0.24
		l-0.74,0.24h-1.51l-1.23,0.49h-1.22l-1.03,0.25l-3.42,0.49l-2.01,0.49h-0.73c-0.17,0.19-0.33,0.27-0.49,0.24l-3.96,0.74v21.35
		l30.18,9.75v-26.9C300.73,34.78,300.57,31.57,299.98,29.06z M291.09,68.25l-20.8-6.93v52.94l10.95,3.55
		c6.41,2.03,12.82,4.08,19.23,6.13V71.47C297.34,70.4,294.21,69.33,291.09,68.25z M313.25,139.52
		c-14.29-4.97-28.63-9.77-42.96-14.61v25.42l1.22,0.24l1.52,0.49h0.73l4.94,1.22c1.57,0.17,2.89,0.41,3.96,0.74l1.23,0.24h0.97
		l0.79,0.25l0.49,0.24l2.93,0.54l1.03,0.24l0.98,0.25h0.73l0.98,0.24l0.73,0.25c0.95,0.06,1.78,0.22,2.5,0.49l2.2,0.48h42.31
		l1.72-0.24l1.27-0.24l0.73-0.25h0.74c0.25-0.08,0.5-0.16,0.75-0.22c0.69-0.18,1.36-0.27,1.98-0.27c1.31-0.49,2.47-0.73,3.48-0.73
		l1.22-0.3c0.47-0.15,0.92-0.27,1.35-0.37C340.28,148.86,326.77,144.17,313.25,139.52z M289.02,74.55l-18.73-6.05v38.7l13.02,4.32
		c5.72,1.95,11.44,3.88,17.16,5.81V78.14C296.65,76.94,292.84,75.74,289.02,74.55z M367.98,34.24l-1.71-0.49
		c-1.51-0.1-2.83-0.34-3.97-0.73h-1.22l-2.01-0.49c-1.17-0.13-2.15-0.3-2.93-0.49l-1.03-0.25c-1.24-0.03-2.3-0.19-3.18-0.48h-1.02
		l-2.7-0.79h-0.97l-0.79-0.24h-0.73l-6.41-1.22v48.71c0.91,0.28,1.82,0.56,2.73,0.83c9.14,2.81,18.29,5.58,27.45,8.29v-52.4
		L367.98,34.24z M289.02,74.55l-18.73-6.05v38.7l13.02,4.32c5.72,1.95,11.44,3.88,17.16,5.81V78.14
		C296.65,76.94,292.84,75.74,289.02,74.55z M369.49,144.36V95.83c-10.03-3.7-20.1-7.31-30.18-10.87v44.82h-20.44
		c4.68,1.47,9.36,2.94,14.05,4.38c12.21,3.81,24.42,7.6,36.65,11.34C369.56,145.09,369.53,144.71,369.49,144.36z M270.29,68.5v38.7
		l13.02,4.32c5.72,1.95,11.44,3.88,17.16,5.81V78.14c-3.82-1.2-7.63-2.4-11.45-3.59L270.29,68.5z M289.02,74.55l-18.73-6.05v38.7
		l13.02,4.32c5.72,1.95,11.44,3.88,17.16,5.81V78.14C296.65,76.94,292.84,75.74,289.02,74.55z M289.02,74.55l-18.73-6.05v38.7
		l13.02,4.32c5.72,1.95,11.44,3.88,17.16,5.81V78.14C296.65,76.94,292.84,75.74,289.02,74.55z"/>
</g>
<g>
	<path class="st0" d="M417.57,100.52c-16.1-4.31-32.12-8.89-48.08-13.63c-9.16-2.71-18.31-5.48-27.45-8.29
		c-0.91-0.27-1.82-0.55-2.73-0.83c-11.63-3.52-23.2-7.25-34.79-10.87l-4.05-1.31l-30.18-9.75l-3.17-1.02l-10.28-3.43l-27-9.01
		c-11.7-4.02-23.42-7.95-35.09-12.08c-0.01,0-0.01,0-0.02,0c-0.68-0.24-1.37-0.49-2.05-0.73c-24.73-8.66-49.39-17.55-73.83-27.09
		c25.34,6.79,50.47,14.24,75.53,21.92c6.98,2.1,13.94,4.28,20.89,6.47c5.54,1.75,11.08,3.5,16.63,5.23l14.8,4.78l0.72,0.23h0.01
		l0.78,0.25l21.09,6.81l0.99,0.33l30.18,10.06l6.11,2.04c10.91,3.76,21.85,7.43,32.73,11.24c1.48,0.52,2.95,1.04,4.43,1.57
		c8.6,3.01,17.18,6.05,25.75,9.13C385.59,88.33,401.62,94.28,417.57,100.52z"/>
</g>
<g>
	<path class="st0" d="M402.07,108.17c-10.9-2.92-21.75-5.96-32.58-9.09c-10.08-2.91-20.14-5.9-30.18-8.94
		c-4.26-1.29-8.52-2.58-12.77-3.89c-8.72-2.62-17.39-5.36-26.07-8.11c-3.82-1.2-7.63-2.4-11.45-3.59l-18.73-6.05l-6.46-2.09
		l-12.21-3.94l-37.28-12.44c-12.39-4.26-24.81-8.42-37.16-12.81c-4.35-1.52-8.7-3.06-13.05-4.6c-20.35-7.21-40.64-14.63-60.78-22.49
		c22.57,6.05,44.97,12.62,67.31,19.41c2.74,0.83,5.48,1.67,8.22,2.51c12.55,3.78,25.02,7.8,37.52,11.7l37.4,12.07l6.89,2.3l9.6,3.2
		l20.8,6.93c3.12,1.08,6.25,2.15,9.38,3.22c9.27,3.16,18.54,6.31,27.77,9.59c3.69,1.29,7.38,2.59,11.07,3.9
		c10.08,3.56,20.15,7.17,30.18,10.87C380.39,99.84,391.25,103.94,402.07,108.17z"/>
</g>
<g>
	<path class="st0" d="M436.77,165.37c-22.48-6.38-44.87-13.05-67.2-19.87c-12.23-3.74-24.44-7.53-36.65-11.34
		c-4.69-1.44-9.37-2.91-14.05-4.38c-6.14-1.94-12.27-3.89-18.4-5.84c-6.41-2.05-12.82-4.1-19.23-6.13l-10.95-3.55l-19.7-6.39
		l-20.91-6.78l-22.63-7.52l-6.52-2.16L178.24,84c-4.7-1.6-9.41-3.19-14.11-4.77c-4.32-1.47-8.65-2.92-12.97-4.39
		c-7.65-2.59-15.3-5.2-22.93-7.85c-0.43-0.15-0.87-0.3-1.3-0.45c-10.95-3.76-21.89-7.55-32.81-11.38
		C83.06,51.29,72.02,47.38,61,43.41c-12.1-4.35-24.17-8.76-36.22-13.26c12.78,3.64,25.53,7.36,38.26,11.16
		c13.42,3.99,26.81,8.06,40.19,12.18c5.34,1.64,10.67,3.29,16,4.95c3.13,0.97,6.27,1.95,9.4,2.93c10.28,3.18,20.54,6.44,30.8,9.71
		c1.57,0.5,3.13,1,4.7,1.5c5.39,1.71,10.78,3.43,16.18,5.14l20.22,6.56l21.14,6.85l10.19,3.31l23.84,7.91l14.59,4.85l13.02,4.32
		c5.72,1.95,11.44,3.88,17.16,5.81c11.4,3.84,22.79,7.69,34.15,11.64c0.78,0.27,1.57,0.54,2.35,0.81
		c10.85,3.74,21.69,7.5,32.52,11.3C391.98,148.97,414.42,157.03,436.77,165.37z"/>
</g>
<g>
	<path class="st0" d="M415.39,175.92c-23.3-6.62-46.5-13.54-69.65-20.63c-11.41-3.49-22.8-7.02-34.19-10.58
		c-13.79-4.25-27.52-8.66-41.26-13.04c-3.47-1.11-6.95-2.21-10.42-3.31l-28.96-9.39l-22.6-7.33l-4.16-1.38l-3.62-1.2l-36.4-12.1
		l-7.26-2.41c-17.11-5.81-34.25-11.52-51.31-17.46c-9.05-3.11-18.1-6.24-27.14-9.39c-9.17-3.21-18.34-6.43-27.5-9.7
		C35.05,52.35,19.2,46.6,3.41,40.7c16.4,4.67,32.76,9.48,49.08,14.4c9.68,2.9,19.35,5.85,29.01,8.83
		c8.59,2.64,17.17,5.31,25.75,7.99c17.27,5.33,34.46,10.9,51.68,16.35l5.2,1.69l36.4,11.8l3.62,1.17l6.34,2.06l30.2,10.03
		l21.24,7.05c2.79,0.95,5.57,1.89,8.36,2.84c14.33,4.84,28.67,9.64,42.96,14.61c13.52,4.65,27.03,9.34,40.52,14.1
		C374.37,160.87,394.92,168.28,415.39,175.92z"/>
</g>
<g>
	<path class="st0" d="M252.71,164.08c-17.54-4.36-34.9-9.27-52.18-14.4c-1.67-0.49-3.34-0.99-5.01-1.49
		c-10.5-3.12-20.96-6.35-31.39-9.65c-4.87-1.54-9.74-3.09-14.59-4.67c-3.54-1.14-7.08-2.29-10.61-3.45
		c-6.24-2.05-12.48-4.13-18.71-6.23c-12.5-4.21-24.97-8.53-37.39-13c-2.89-1.03-5.77-2.07-8.65-3.12
		c-10.58-3.82-21.12-7.75-31.61-11.86c-5.09-1.98-10.18-4.02-15.24-6.1c5.07,1.26,10.13,2.57,15.18,3.92
		c10.01,2.67,19.96,5.49,29.89,8.4c4.05,1.18,8.09,2.38,12.13,3.59c13.93,4.15,27.81,8.47,41.64,12.91
		c4.99,1.6,9.97,3.21,14.94,4.84c4.05,1.33,8.1,2.67,12.14,4.02c3.54,1.18,7.08,2.37,10.62,3.57c11.15,3.79,22.27,7.66,33.35,11.64
		c1.1,0.39,2.21,0.79,3.31,1.19C218.04,150.47,235.47,156.99,252.71,164.08z"/>
</g>
<g>
	<path class="st0" d="M241.02,169.86c-18.42-4.58-36.64-9.77-54.78-15.18c-0.81-0.24-1.61-0.48-2.42-0.72
		c-6.58-1.96-13.14-3.95-19.69-5.98c-6.9-2.14-13.79-4.31-20.67-6.52c-5.41-1.74-10.82-3.5-16.22-5.27
		c-6.49-2.13-12.98-4.29-19.46-6.48c-8.17-2.75-16.33-5.56-24.47-8.42c-0.01,0-0.01-0.01-0.01-0.01c-4.06-1.42-8.11-2.86-12.16-4.32
		c-9.11-3.25-18.19-6.56-27.25-9.97c-9.46-3.57-18.88-7.25-28.25-11.11c9.24,2.3,18.44,4.76,27.59,7.31
		c9.9,2.77,19.76,5.65,29.6,8.6c1.24,0.37,2.48,0.74,3.72,1.12c13.83,4.14,27.59,8.45,41.31,12.88c3.86,1.24,7.71,2.5,11.56,3.76
		c6.26,2.05,12.52,4.13,18.77,6.24c5.32,1.79,10.63,3.6,15.94,5.44c7.15,2.47,14.28,4.98,21.4,7.54c4.22,1.51,8.44,3.03,12.65,4.57
		C212.54,158.58,226.85,164.02,241.02,169.86z"/>
</g>
</svg>
