<?xml version="1.0" encoding="utf-8"?>
<!-- Generator: Adobe Illustrator 25.2.0, SVG Export Plug-In . SVG Version: 6.00 Build 0)  -->
<svg version="1.1" id="Layer_1" xmlns="http://www.w3.org/2000/svg" xmlns:xlink="http://www.w3.org/1999/xlink" x="0px" y="0px"
	 viewBox="0 0 458.81 160.34" style="enable-background:new 0 0 458.81 160.34;" xml:space="preserve">
<g>
	<path d="M155.68,50.05l-0.23-0.68l-0.22-0.67c-1-1.44-1.67-2.81-1.99-4.13l-0.49-0.45l-0.06-0.09l-0.38-0.58l-0.67-1.58
		c-0.26-0.15-0.41-0.31-0.44-0.49l-0.22-0.45l-0.45-0.45l-0.22-0.67l-2.26-2.97c-14.92-17.99-33.2-26.26-54.83-24.79
		c-13.82,1.78-25.34,6.31-34.54,13.61c-0.5,0.39-1,0.8-1.48,1.21c25.07,6.53,50.23,12.66,75.42,18.62
		c7.79,1.88,15.59,3.7,23.39,5.49L155.68,50.05z M123.67,94.51l-0.17,1.98l-0.28,0.54c0.65,0.16,1.3,0.31,1.95,0.47l0.85-0.34
		l0.93-0.43c0.15-0.08,0.3-0.16,0.45-0.24h0.05l0.39-0.18l0.63-0.23l0.04-0.04c0.06-0.01,0.12-0.03,0.18-0.04l0.97-0.36l2.05-0.93
		c0.11-0.06,0.21-0.13,0.32-0.2H123.67z M148.63,107.92c-9.94-2.06-19.87-4.16-29.82-6.21c-2.43,1.8-4.89,3.25-7.38,4.35
		c-8.65,3.83-17.71,3.45-27.16-1.13c-3.98-2.29-7.34-4.9-10.07-7.84c-1.46-1.57-2.74-3.25-3.84-5.01c-1.78-2.87-3.09-5.99-3.91-9.36
		c-0.18-0.72-0.33-1.45-0.46-2.19c-0.39-2.17-0.59-4.44-0.6-6.81c0.26-11.04,4.02-19.8,11.28-26.3c0.12-0.11,0.25-0.23,0.38-0.34
		c1.32-1.15,2.67-2.18,4.04-3.09c-11.17-2.25-22.36-4.46-33.55-6.63c-0.61,0.83-1.19,1.68-1.76,2.55c-1.51,2.32-2.91,4.79-4.19,7.4
		c-5.85,13.35-7.56,26.17-5.15,38.45c0.13,0.63,0.26,1.25,0.41,1.88v0.01c1.79,7.71,5.23,15.2,10.32,22.49
		c15.1,18.57,33.52,27,55.27,25.29c18.5-1.99,32.91-9.13,43.23-21.42c1.53-1.82,2.97-3.75,4.31-5.8L148.63,107.92z M123.67,94.51
		l-0.17,1.98l-0.28,0.54c0.65,0.16,1.3,0.31,1.95,0.47l0.85-0.34l0.93-0.43c0.15-0.08,0.3-0.16,0.45-0.24h0.05l0.39-0.18l0.63-0.23
		l0.04-0.04c0.06-0.01,0.12-0.03,0.18-0.04l0.97-0.36l2.05-0.93c0.11-0.06,0.21-0.13,0.32-0.2H123.67z M154.3,94.51v0.4
		c-0.83-0.16-1.59-0.25-2.28-0.26h1.84v-0.14H154.3V71.88h-57l-9.91,12.49l-2.06,2.6v0.68c9.17,2.35,18.35,4.62,27.55,6.86h10.79
		l-0.17,1.98l-0.28,0.54c0.65,0.16,1.3,0.31,1.95,0.47l0.85-0.34l0.93-0.43c0.15-0.08,0.3-0.16,0.45-0.24h0.05l0.39-0.18l0.63-0.23
		l0.04-0.04c0.06-0.01,0.12-0.03,0.18-0.04l0.97-0.36l2.05-0.93c0.11-0.06,0.21-0.13,0.32-0.2h0.11l-0.43,0.2
		c-1.06,0.63-2.07,1.06-3.02,1.29l-0.22,0.08l-0.41,0.41h-0.61l-0.5,0.24c-0.59,0.3-1.15,0.57-1.68,0.79
		c9.09,2.19,18.21,4.28,27.31,6.42c0.61-1.09,1.2-2.21,1.77-3.36v-5.39l0.26-0.68H154.3z M137.28,94.69
		c-0.48,0.03-0.93,0.04-1.37,0.04l-0.27,0.05l-0.51-0.06c-1.01-0.01-1.93-0.08-2.74-0.21h0.99l1.75,0.21
		c0.25,0.01,0.51,0.01,0.78,0.01l0.4-0.08h14.92c-0.16,0.01-0.32,0.02-0.47,0.04H137.28z M126.71,53.27
		c0.99,1.47,1.88,3.05,2.68,4.73h19.85C141.73,56.41,134.22,54.83,126.71,53.27z M97.3,71.88l-9.91,12.49l-2.06,2.6v0.68
		c9.17,2.35,18.35,4.62,27.55,6.86h41.42V71.88H97.3z M154.3,94.51v0.81l0.05-0.13l0.26-0.68H154.3z M123.67,94.51l-0.17,1.98
		l-0.28,0.54c0.65,0.16,1.3,0.31,1.95,0.47l0.85-0.34l0.93-0.43c0.15-0.08,0.3-0.16,0.45-0.24h0.05l0.39-0.18l0.63-0.23l0.04-0.04
		c0.06-0.01,0.12-0.03,0.18-0.04l0.97-0.36l2.05-0.93c0.11-0.06,0.21-0.13,0.32-0.2H123.67z M133.38,94.51l1.75,0.21
		c0.25,0.01,0.51,0.01,0.78,0.01l0.4-0.08h14.92c0.25-0.01,0.51-0.02,0.79,0h1.84v-0.14H133.38z"/>
	<path d="M192.55,44.52l-0.53,0.23c-1.15-0.21-2.15-0.29-3.01-0.23h-24.87c-0.65,0.21-1.33,0.29-2.04,0.23l-1.77,0.22v7.01
		c6.24,1.43,12.48,2.86,18.72,4.31l14.26,3.2V44.75L192.55,44.52z M170.53,62.49c-3.4-0.71-6.8-1.43-10.2-2.15v45.37l30.92,6.96
		l2.06,0.44V67.42L170.53,62.49z M192.38,117.33l-32.12-6.91l0.07,0.17v22.78h2.04c0.53-0.15,1.03-0.23,1.51-0.23l0.48-0.18h1.56
		c1.35-0.3,2.63-0.43,3.81-0.4c1.39-0.3,2.57-0.45,3.54-0.45l1.24-0.18h1.02l1.02-0.23c0.98-0.12,1.82-0.18,2.53-0.18l1.29-0.22
		h1.01c0.45-0.15,0.88-0.23,1.29-0.23h0.75c0.24-0.14,0.49-0.21,0.76-0.18h1.02c0.23-0.14,0.48-0.22,0.75-0.22l1.29-0.18
		c0.82-0.03,1.49-0.1,1.99-0.22l4.08-0.41v-12.32L192.38,117.33z M228.32,21.89l-1.77-0.23l-4.56-2.02
		c-2.31-0.21-4.26-0.79-5.86-1.75h-2.26l-0.79-0.27h-3.43c3.14,0.78,6.29,1.55,9.44,2.31c3.19,0.79,6.38,1.56,9.57,2.32
		C228.54,22.13,228.43,22.01,228.32,21.89z M250.89,52.7l-0.23-1.75v-0.77c-0.5-0.95-0.75-1.94-0.75-2.96
		c-0.32-0.6-0.5-1.18-0.53-1.75c-1.12-1.59-1.8-3.1-2.04-4.54l-0.49-0.76l-0.75-0.72c-0.56-0.7-0.96-1.42-1.19-2.16
		c-0.04-0.12-0.07-0.24-0.1-0.36l-1.02-0.98l-0.48-0.77l-0.54-0.27c-0.35-0.99-0.85-1.81-1.5-2.47c-0.57-0.45-0.99-0.96-1.29-1.53
		c-0.77-0.58-1.44-1.17-2.01-1.77c-10.74-2.24-21.47-4.49-32.24-6.61c-10.02-2.01-20.04-4-30.08-5.92c-0.13,0-0.26,0.01-0.38,0.02
		h-2.53l-1.02-0.22h-6.34c-1.98-0.3-3.66-0.39-5.05-0.27v26.54h1.77c1.95,0.3,3.56,0.39,4.83,0.27h5.81l5.1,0.23h23.09
		c4.02-0.18,7.32-0.02,9.89,0.49c6.32,3.14,9.87,7.91,10.63,14.28c-0.02,0.24-0.04,0.48-0.07,0.71c-0.28,2.53-0.85,4.78-1.72,6.73
		l5.89,1.32l23.83,5.14c0.74-2.21,1.28-4.41,1.63-6.61C251.68,61.04,251.64,56.86,250.89,52.7z M226.58,74.61l-12.35-2.67
		c-4.13,2.76-10.02,3.79-17.64,3.08v19.27c-0.06,1.56,0.03,2.89,0.26,4h0.76l0.26,0.49c1.3,0.51,2.32,1.02,3.06,1.53
		c17.3,1.25,30.92-3.83,40.86-15.24c1.05-1.2,2.05-2.47,3.02-3.81l0.27-1.75l0.87-0.58L226.58,74.61z"/>
	<path d="M346.4,121.82v-19.97c-2.66-0.63-5.31-1.25-7.97-1.87c-6.45-1.53-12.91-3.04-19.37-4.52v12.98h-35.2V87.4
		c-0.44-0.1-0.87-0.2-1.31-0.3l-26.04-5.81v45.11l32.62,6.34h31.03l1.56-0.23l1.15-0.22l0.66-0.23h0.67
		c0.88-0.3,1.71-0.45,2.48-0.45c1.18-0.45,2.23-0.67,3.15-0.67l1.1-0.27c1.22-0.39,2.26-0.61,3.15-0.67l1.33-0.23l0.89-0.22
		c1.21-0.36,2.26-0.59,3.14-0.68l0.45-0.22l1.82-0.22l1.77-0.45l2.7-0.45C346.48,125.16,346.55,123.26,346.4,121.82z M345.03,20.72
		l-1.55-0.45c-1.36-0.09-2.56-0.31-3.59-0.67h-1.11l-1.82-0.45c-1.06-0.12-1.95-0.27-2.66-0.45l-0.93-0.23
		c-1.12-0.03-2.08-0.18-2.88-0.45h-0.93l-2.44-0.71h-0.88l-0.71-0.23h-0.67l-5.8-1.12v26.57l4.45,0.95
		c7.63,1.55,15.26,3.15,22.89,4.7V20.94L345.03,20.72z M256.51,33.05v40.34l15.63,3.37c3.91,0.81,7.81,1.63,11.72,2.44V38.93
		L256.51,33.05z M331.67,49.6l-12.61-2.83v39.7c9.11,1.85,18.22,3.68,27.34,5.47V53.02C341.49,51.88,336.58,50.75,331.67,49.6z
		 M283.42,15.96l-1.11,0.45l-1.37,0.22h-1.33l-1.6,0.45l-1.55,0.23l-1.33,0.22l-1.15,0.23l-1.55,0.26l-1.11,0.23l-0.67,0.22h-1.37
		l-1.11,0.45h-1.11l-0.93,0.23l-3.1,0.45l-1.82,0.45h-0.66c-0.15,0.18-0.3,0.25-0.45,0.22l-3.59,0.67v7.83l27.35,6.16V24.81
		C284.1,21.21,283.95,18.26,283.42,15.96z"/>
</g>
<g>
	<path d="M428.78,63.23c-23.55-3.69-46.95-8.05-70.29-12.66c-4.04-0.77-8.06-1.57-12.09-2.39c-7.63-1.55-15.26-3.15-22.89-4.7
		l-4.45-0.95L288.62,36l-4.76-1.07l-27.35-6.16l-2.7-0.61c-8.38-1.98-16.77-3.91-25.15-5.91c-3.19-0.76-6.38-1.53-9.57-2.32
		c-3.15-0.76-6.3-1.53-9.44-2.31c-19.97-4.9-39.88-10.04-59.68-15.67c23.55,3.69,46.94,8.06,70.29,12.66
		c11.68,2.24,23.32,4.72,34.97,7.09l1.28,0.27l27.35,5.86l6.27,1.34l28.93,6.52l5.88,1.32c7.15,1.69,14.31,3.34,21.46,5.03
		c4.43,1.04,8.85,2.1,13.26,3.2C382.79,50.85,405.86,56.7,428.78,63.23z"/>
</g>
<g>
	<path d="M456.76,80.49c-28.27-4.72-56.39-10.13-84.46-15.77c-8.64-1.69-17.27-3.49-25.9-5.29c-5.39-1.13-10.77-2.25-16.16-3.36
		l-11.18-2.41l-30.79-6.62l-4.41-0.99l-27.35-6.14l-10.14-2.28c-0.49-0.11-0.97-0.23-1.46-0.34c-13.45-3.14-26.93-6.18-40.35-9.45
		c-14.76-3.52-29.51-7.11-44.23-10.84c-13.05-3.29-26.07-6.7-39.06-10.25c18.18,3.04,36.3,6.37,54.38,9.86
		c10.04,1.92,20.06,3.91,30.08,5.92c10.77,2.12,21.5,4.37,32.24,6.61c3.27,0.68,6.55,1.36,9.82,2.04l8.72,1.87l27.35,5.88l5.91,1.27
		l29.29,6.57l12.61,2.83c4.91,1.15,9.82,2.28,14.73,3.42c9.04,2.08,18.07,4.17,27.08,6.37C401.32,66.03,429.12,72.92,456.76,80.49z"
		/>
</g>
<g>
	<path d="M412.49,104.21c-22.09-3.8-44.11-7.94-66.09-12.27c-9.12-1.79-18.23-3.62-27.34-5.47c-0.08-0.02-0.17-0.03-0.25-0.05
		c-11.67-2.31-23.31-4.77-34.95-7.22c-3.91-0.81-7.81-1.63-11.72-2.44l-15.63-3.37l-7.13-1.54l-23.83-5.14l-5.89-1.32l-26.35-5.9
		l-14.26-3.2c-6.24-1.45-12.48-2.88-18.72-4.31c-1.44-0.33-2.88-0.66-4.32-1c-7.8-1.79-15.6-3.61-23.39-5.49
		C107.43,39.53,82.27,33.4,57.2,26.87c-5.7-1.47-11.4-2.97-17.09-4.5c6.2,1.07,12.38,2.17,18.57,3.29
		c25.1,4.53,50.13,9.45,75.11,14.52c6.31,1.25,12.61,2.54,18.9,3.85c2.55,0.53,5.09,1.06,7.64,1.6c6.71,1.4,13.42,2.82,20.13,4.21
		l12.85,2.77l28.07,6.05l5.67,1.22l23.96,5.36l5.5,1.23l17.05,3.82c3.43,0.8,6.87,1.59,10.3,2.38c11.74,2.7,23.49,5.38,35.2,8.2
		c0.31,0.07,0.61,0.15,0.92,0.22c8.81,2.09,17.62,4.19,26.42,6.33C368.49,92.77,390.52,98.32,412.49,104.21z"/>
</g>
<g>
	<path d="M449.87,127.27c-34.59-6.23-69.06-13.04-103.47-20.08c-3.05-0.62-6.09-1.24-9.14-1.87c-6.07-1.23-12.14-2.48-18.2-3.75
		c-11.74-2.45-23.46-4.96-35.2-7.42c-0.91-0.19-1.82-0.38-2.73-0.57l-24.62-5.33l-14.72-3.18l-16.71-3.62l-28.49-6.36l-3.28-0.74
		l-24.2-5.4c-2.93-0.67-5.85-1.34-8.78-2.01c-15.71-3.6-31.43-7.15-47.11-10.87c-12.19-2.85-24.37-5.73-36.55-8.65
		c-10.31-2.47-20.6-4.97-30.89-7.51c-14.69-3.62-29.36-7.32-44-11.12c15.28,2.75,30.53,5.62,45.76,8.57
		c11.19,2.17,22.38,4.38,33.55,6.63c11.11,2.22,22.21,4.48,33.3,6.76c4.11,0.83,8.21,1.67,12.32,2.52
		c7.51,1.56,15.02,3.14,22.53,4.73c3.7,0.78,7.39,1.56,11.09,2.34c3.4,0.72,6.8,1.44,10.2,2.15l22.78,4.93l20.92,4.52l12.35,2.67
		l19.37,4.32h0.01l10.55,2.36l26.04,5.81c0.44,0.1,0.87,0.2,1.31,0.3c11.73,2.71,23.47,5.36,35.2,8.06
		c6.46,1.48,12.92,2.99,19.37,4.52c2.66,0.62,5.31,1.24,7.97,1.87C380.97,109.97,415.48,118.33,449.87,127.27z"/>
</g>
<g>
	<path d="M337.27,141.18c-16.11-2.56-32.14-5.41-48.14-8.44c-8.37-1.58-16.73-3.2-25.08-4.86c-2.52-0.48-5.03-0.98-7.54-1.48
		c-9.65-1.93-19.27-3.97-28.91-5.93l-34.29-7.36l-2.06-0.44l-30.92-6.96l-5.36-1.21c-0.8-0.19-1.59-0.38-2.39-0.56
		c-9.1-2.14-18.22-4.23-27.31-6.42c-0.03,0-0.06-0.01-0.1-0.02c-0.65-0.16-1.3-0.31-1.95-0.47c-1.48-0.36-2.96-0.72-4.44-1.09
		c-1.97-0.48-3.94-0.95-5.9-1.43c-9.2-2.24-18.38-4.51-27.55-6.86c-6.3-1.61-12.59-3.24-18.88-4.93c-6.58-1.75-13.16-3.55-19.72-5.4
		c6.43,1.03,12.85,2.1,19.26,3.21c7.15,1.23,14.28,2.52,21.4,3.84c10.87,2.01,21.72,4.11,32.56,6.26
		c6.44,1.24,12.86,2.55,19.29,3.88c0.22,0.05,0.45,0.09,0.68,0.14c0.07,0.01,0.13,0.03,0.2,0.04c4.74,0.98,9.49,1.96,14.23,2.93
		c0.68,0.14,1.36,0.28,2.04,0.42l3.94,0.84l32.42,6.95l0.56,0.13l35.72,8.04c9.16,2.16,18.33,4.25,27.48,6.44
		c2.91,0.69,5.81,1.39,8.71,2.11c13.63,3.29,27.24,6.66,40.81,10.19C316.47,135.44,326.88,138.25,337.27,141.18z"/>
</g>
<g>
	<path d="M366.43,159.17c-29.45-4.98-58.75-10.64-87.99-16.55c-14.64-2.88-29.22-6.02-43.83-9.03l-41.3-8.9l-2.44-0.53l-30.54-6.85
		l-13.11-2.94c-0.52-0.12-1.03-0.24-1.55-0.36c-11.41-2.66-22.84-5.25-34.24-7.95c-2.6-0.61-5.19-1.23-7.79-1.86
		c-9.82-2.34-19.64-4.7-29.44-7.11c-12.47-3.06-24.92-6.2-37.35-9.44v-0.01c-6.69-1.73-13.36-3.5-20.03-5.31
		c6.55,1.11,13.09,2.25,19.62,3.43c11.32,2.02,22.63,4.14,33.92,6.32c11.49,2.21,22.98,4.49,34.45,6.8c4.67,0.92,9.34,1.87,14,2.83
		c9.95,2.05,19.88,4.15,29.82,6.21l1.35,0.29l10.28,2.21l32.12,6.91l0.93,0.21l42.73,9.58c14.52,3.39,29.08,6.65,43.57,10.17
		C308.64,144.19,337.61,151.34,366.43,159.17z"/>
</g>
</svg>
