<?xml version="1.0" encoding="utf-8"?>
<!-- Generator: Adobe Illustrator 25.2.0, SVG Export Plug-In . SVG Version: 6.00 Build 0)  -->
<svg version="1.1" id="Layer_1" xmlns="http://www.w3.org/2000/svg" xmlns:xlink="http://www.w3.org/1999/xlink" x="0px" y="0px"
	 viewBox="0 0 266.55 208.34" style="enable-background:new 0 0 266.55 208.34;" xml:space="preserve">
<g>
	<path d="M55.95,19.17v3c11.02,5.47,22.11,10.78,33.22,16.03c1.5,0.72,3.01,1.43,4.52,2.13V19.17H55.95z M93.69,172.01v-29.39
		l-10.76-4.75c-7.37-3.15-14.69-6.38-22.1-9.45c-1.63-0.68-3.25-1.37-4.88-2.04v75.94h98.88v-30.31H93.69z M77.91,44.45
		c-7.31-3.14-14.63-6.25-21.96-9.33v79.76c0.6,0.29,1.21,0.58,1.81,0.86c8.53,4.08,17.15,8,25.73,11.99l10.2,4.63v-81.1
		C88.44,48.97,83.18,46.69,77.91,44.45z"/>
</g>
<g>
	<path d="M118.39,18.74v33.05l22.36,10.15l14.08,6.23V49.38h78.7V18.74H118.39z M148.52,167.74c-7.21-3.49-14.5-6.81-21.75-10.22
		l-8.38-3.81v48.61h36.44v-31.56C152.73,169.75,150.62,168.74,148.52,167.74z M194.89,96.79h-40.06V78.41l-15.42-6.99l-21.02-9.32
		v81.39l16.89,7.48c6.52,2.81,13.02,5.67,19.55,8.47V127.3h69.96v-16.38c-8.09-3.88-16.2-7.71-24.33-11.52
		C198.61,98.52,196.75,97.65,194.89,96.79z M221.83,96.79c0.98,0.41,1.97,0.81,2.96,1.2v-1.2H221.83z"/>
</g>
<path d="M260.94,128.67c-12.11-4.77-24.15-9.69-36.15-14.71c-8.66-3.63-17.3-7.3-25.92-11c-4.79-2.03-9.57-4.09-14.34-6.17
	c-5.49-2.39-10.97-4.8-16.47-7.19l-13.23-5.87l-17.47-7.75l-18.97-8.6l-11.61-5.26c-4.36-2.02-8.73-4.03-13.09-6.04
	c-5.8-2.67-11.6-5.35-17.37-8.09c-6.8-3.18-13.59-6.38-20.37-9.61c-13.44-6.41-26.82-12.93-40.12-19.64
	c13.45,5.3,26.81,10.78,40.12,16.38c7.33,3.08,14.65,6.19,21.96,9.33c5.27,2.24,10.53,4.52,15.78,6.81
	c5.01,2.18,10.01,4.37,15.02,6.55l9.68,4.29l21.02,9.32l15.42,6.99l15.16,6.87c8.3,3.85,16.62,7.63,24.9,11.51
	c1.86,0.86,3.72,1.73,5.57,2.61c8.13,3.81,16.24,7.64,24.33,11.52C236.89,116.71,248.95,122.61,260.94,128.67z"/>
<path d="M245.37,106.12c-6.89-2.64-13.75-5.36-20.58-8.13c-0.99-0.39-1.98-0.79-2.96-1.2c-9.73-3.95-19.4-8.01-29.06-12.12
	c-8.73-3.66-17.38-7.49-26.07-11.24l-11.87-5.26l-14.08-6.23l-22.36-10.15l-3.49-1.59c-7.07-3.3-14.16-6.54-21.21-9.87
	c-1.51-0.7-3.02-1.41-4.52-2.13c-11.11-5.25-22.2-10.56-33.22-16.03c-5.95-2.94-11.88-5.93-17.78-8.98c5.95,2.29,11.88,4.62,17.78,7
	c11.66,4.69,23.26,9.54,34.81,14.46c0.98,0.41,1.95,0.82,2.93,1.24c7.74,3.28,15.43,6.67,23.14,10l1.56,0.69l24.4,10.8l12.04,5.46
	l13.81,6.27c8.58,4,17.19,7.92,25.73,12C211.49,89.19,228.53,97.43,245.37,106.12z"/>
<path d="M191.56,189.18c-12.36-4.61-24.57-9.52-36.73-14.58c-2.07-0.85-4.14-1.72-6.21-2.59c-0.57-0.23-1.13-0.47-1.7-0.71
	c-7.4-3.07-14.72-6.31-22.09-9.46l-6.44-2.85l-15.53-6.86l-9.17-4.17l-12.7-5.78c-7.25-3.4-14.53-6.73-21.75-10.22
	c-1.1-0.52-2.19-1.05-3.29-1.57c-13.35-6.38-26.64-12.93-39.75-19.86c13.38,4.99,26.6,10.34,39.75,15.85
	c1.63,0.67,3.25,1.36,4.88,2.04c7.41,3.07,14.73,6.3,22.1,9.45l10.76,4.75l11.21,4.95l13.49,6.14l8.38,3.81
	c7.25,3.41,14.54,6.73,21.75,10.22c2.1,1,4.21,2.01,6.31,3.02C167.17,176.68,179.44,182.76,191.56,189.18z"/>
<path d="M213.96,183.66c-17.7-6.8-35.19-14.04-52.6-21.45c-2.18-0.92-4.36-1.84-6.53-2.77c-6.53-2.8-13.03-5.66-19.55-8.47
	l-16.89-7.48l-9.06-4.02l-15.64-7.11l-10.2-4.63c-8.58-3.99-17.2-7.91-25.73-11.99c-0.6-0.28-1.21-0.57-1.81-0.86
	C39.44,107.08,23,99.11,6.75,90.73c16.54,6.36,32.91,13.11,49.2,20.02c1.14,0.48,2.27,0.96,3.4,1.44
	c8.72,3.66,17.38,7.49,26.07,11.23l8.27,3.66l17.68,7.83l7.02,3.19l18.83,8.55c5.87,2.74,11.75,5.43,17.61,8.17
	c2.71,1.26,5.42,2.54,8.12,3.83C180.07,166.73,197.11,174.97,213.96,183.66z"/>
</svg>
