<?xml version="1.0" encoding="utf-8"?>
<!-- Generator: Adobe Illustrator 25.2.0, SVG Export Plug-In . SVG Version: 6.00 Build 0)  -->
<svg version="1.1" id="Layer_1" xmlns="http://www.w3.org/2000/svg" xmlns:xlink="http://www.w3.org/1999/xlink" x="0px" y="0px"
	 viewBox="0 0 935.43 595.28" style="enable-background:new 0 0 935.43 595.28;" xml:space="preserve">
<style type="text/css">
	.st0{fill:#F90000;}
	.st1{fill:#E76D6D;}
	.st2{fill:#E21E1E;}
	.st3{fill:#020101;}
	.st4{fill:#FCFCFC;}
</style>
<g>
	<path class="st0" d="M541.21,181.45c5.65,17.06,11.39,34.08,16.93,51.17c15.41,47.56,40.93,88.66,77.85,122.57
		c6.25,5.74,12.01,12.02,18.16,17.88c14.79,14.09,24.36,31.07,28.81,50.99c0.8,3.57,1.94,7.06,2.94,10.58
		c2.97,10.45,9.25,18.41,18.56,23.84c7.47,4.36,15.2,8.29,22.82,12.39c2.51,1.35,4.94,2.8,6.74,5.07c3.18,4.01,2.84,9.41-0.78,12.63
		c-0.73,0.65-1.53,1.73-2.53,1.3c-8.3-3.57-16.83-0.99-25.19-0.74c-61.3,1.8-122.59,0.68-183.89,0.43
		c-101.46-0.41-202.92-0.21-304.39-0.36c-29.31-0.04-58.62-0.43-87.94-0.53c-2.86-0.01-3.81-1.69-4.6-3.71
		c-1.7-4.4,0.14-9.08,5.32-12.2c5.41-3.26,11.01-6.28,16.75-8.91c16.45-7.55,26.8-19.71,30.23-37.73
		c4.23-22.22,15.66-40.31,31.9-55.88c17.91-17.17,35.77-34.42,50.98-54.17c18.85-24.47,31.26-52.2,41.4-81.07
		c5.79-16.48,11.12-33.11,16.66-49.67c5.09,0.04,10.18,0.07,15.27,0.11c-1.69,5.91-3.27,11.85-5.09,17.72
		c-7.83,25.2-16.52,50.09-27.3,74.22c-10.9,24.37-26.05,45.91-43.44,66c-0.73,2.01-3.27,2.63-3.72,4.85
		c-0.46,0.18-1.05,0.24-1.35,0.57c-14.58,15.52-30.88,29.38-44.63,45.69c-6.29,7.46-10.81,15.94-12.73,25.64
		c-0.31,0.99-0.62,1.97-0.93,2.96c-0.96,3.17-2.13,6.29-2.85,9.51c-4.32,19.24-15.26,33.31-32.71,42.43
		c-1.47,0.77-3.3,1.22-4.25,2.97c184.13,0,367.95,0,552.72,0c-4.56-2.76-8.25-4.97-11.91-7.22c-15.77-9.69-23.19-24.8-26.79-42.15
		c-4.29-20.63-15.22-37-31.17-50.33c-6.14-6.05-12.27-12.1-18.41-18.15c-6.19-6.59-12.37-13.17-18.56-19.76
		c-5.01-6.29-10.03-12.59-15.04-18.88c-5.9-9.21-11.81-18.43-17.71-27.64c-1.42-2.81-2.85-5.62-4.27-8.43
		c-9.48-18.75-16.08-38.68-23.83-58.14c0.31-2.42-0.75-4.56-1.44-6.77c-3.97-12.67-8.5-25.16-11.58-38.1
		C531.17,181.2,536.2,181.46,541.21,181.45z"/>
	<path class="st1" d="M343.24,109.66c19.39-23.1,42.63-39.95,73.21-44.6c14.02-2.13,27.71-0.79,41.43,3.39
		c14.03,4.27,26.17,11.12,37.6,20.21c7.58,6.02,14.09,12.91,20.77,19.74c2.54,2.6,5.02,5.35,5.96,9.06
		c-5.68,0.1-11.4-0.35-17.01,0.97c-5.43-5.62-10.81-11.28-16.88-16.23c-26.58-21.66-55.85-29.22-88.81-16.67
		c-15.23,5.8-27.51,15.97-39.03,27.17c-4.73,0.07-9.3-1.67-14.07-1.17C344.98,111.67,343.93,110.91,343.24,109.66z"/>
	<path class="st2" d="M343.24,109.66c0.69,1.25,1.74,2.01,3.18,1.86c4.77-0.5,9.34,1.24,14.07,1.17
		c-5.99,6.21-10.12,13.33-12.23,21.83c-2.56,10.32-5.96,20.43-8.71,30.71c-1.53,5.73-4.14,11.2-4.28,17.28l0.08-0.08
		c-1.68,0.32-0.91,2.36-2.11,3.02c-5.09-0.04-10.18-0.07-15.27-0.11c6.43-22.43,12.76-44.9,19.42-67.27
		C338.33,114.89,340.21,111.72,343.24,109.66z"/>
	<path class="st2" d="M505.2,118.42c5.61-1.32,11.33-0.87,17.01-0.97c5.13,12.16,7.99,25.04,11.73,37.64
		c2.6,8.74,4.86,17.57,7.28,26.37c-5.01,0-10.05-0.26-14.98,0.99c-4.38-12.17-7.24-24.8-11.14-37.12
		C512.2,136.22,510.96,126.48,505.2,118.42z"/>
	<path class="st3" d="M505.2,118.42c5.76,8.06,7.01,17.8,9.89,26.91c3.9,12.31,6.76,24.95,11.14,37.12
		c3.08,12.94,7.61,25.43,11.58,38.1c0.69,2.21,1.75,4.34,1.44,6.77c-6.79-10.37-12.13-21.53-15.94-33.23
		c-5.64-17.33-10.29-34.9-17.48-51.8c-5.59-13.14-14.41-21.4-26.97-26.83c-8.2-3.55-16.91-5.77-24.8-10.08
		c-7.48-4.08-15.36-6.8-23.97-7.52c-3.8-0.32-6.04,0.6-7.34,4.16c-3.7,10.14-7.58,20.2-11.16,30.38c-1.84,5.24-0.34,7.35,5.23,7.01
		c9.78-0.6,19.53-1.77,29.3-2.5c8.15-0.6,16.28-2.02,25.96-1.11c-7.75,3.55-14.57,5.42-21.44,6.65
		c-23.73,4.27-44.54,14.01-60.86,32.06c-9.48,10.49-18.26,21.7-25,34.13c-10.18,18.77-21.92,36.82-28.58,57.64
		c2.69,0.37,3.22-1.52,4.14-2.71c19.69-25.54,40.28-50.38,59.17-76.55c8.47-11.73,19.45-20.94,33.4-25.87
		c11.28-3.99,22.39-3.33,31.25,5.05c15.98,15.12,29.32,32.32,35.06,54.11c3.38,12.84,5.93,25.91,8.85,38.87
		c0.92,4.07,2.83,7.2,6.8,9.23c4.89,2.5,5.2,5.41,1.53,9.48c-3.28,3.64-7.28,6.5-11.68,8.41c-15.68,6.79-27.3,17.86-36.3,32.24
		c-8.95,14.3-19.5,27.73-20.85,45.51c-0.53,6.98-2.85,13.79-2.47,21.7c3.27-4.69,5.85-8.87,8.89-12.68
		c13.04-16.36,29.38-29.06,47.2-39.52c22.18-13.02,44.65-25.55,66.17-39.68c5.9,9.21,11.81,18.43,17.71,27.64
		c-31.49,12.82-106.34,63.71-109.04,74.31c0.69-0.31,1.31-0.49,1.82-0.83c23.43-15.34,48.59-27.26,74.6-37.39
		c15.73-6.13,31.76-11.5,47.65-17.21c6.19,6.59,12.37,13.17,18.55,19.76c-37.06,6.42-72.34,18.25-106.05,34.85
		c-13.62,6.71-26.83,14.1-39.06,23.28c4.6-1.31,8.94-3.2,13.39-4.81c36.37-13.15,74.12-20.8,111.96-28.1
		c12.71-2.45,25.45-4.72,38.17-7.08c15.95,13.34,26.88,29.7,31.17,50.33c3.6,17.34,11.02,32.45,26.79,42.15
		c3.66,2.25,7.35,4.46,11.91,7.22c-184.78,0-368.6,0-552.72,0c0.95-1.75,2.78-2.2,4.25-2.97c17.45-9.11,28.39-23.18,32.71-42.43
		c0.72-3.22,1.89-6.34,2.85-9.51c3.96,1.31,8.06,1.29,12.17,1.25c6.49-0.06,13.05-0.61,19.46,0.11c15.06,1.71,30.25,2.22,45.22,4.83
		c9.26,1.61,18.63,2.59,27.86,4.32c10.42,1.95,20.75,4.43,31.13,6.63c0.73,0.16,1.74,0.43,2.18-0.51c0.46-0.96-0.45-1.47-0.99-2.05
		c-0.56-0.61-1.09-1.29-1.77-1.76c-15.55-10.82-32.58-18.62-50.82-23.48c-12.95-3.45-26.08-6.09-39.53-7.34
		c-7.79-0.73-15.51-0.28-23.25-0.74c-0.95-0.06-1.82-0.02-2.72,0.76c-5.95,5.07-11.99,10.03-18.01,15.02
		c1.92-9.7,6.44-18.17,12.73-25.64c13.75-16.31,30.05-30.17,44.63-45.69c0.31-0.33,0.89-0.38,1.35-0.57
		c8.01,2.71,16.05,5.35,24.04,8.14c28.35,9.89,53.91,24.88,77.84,42.82c4.05,3.04,8.01,6.2,11.98,9.28c0.93-1.1,0.55-1.63,0.15-2.17
		c-8.95-12.06-18.34-23.62-29.57-33.78c-15.61-14.13-32.66-25.86-51.36-35.48c-5.46-2.81-9.68-2.64-14.89-0.03
		c-4.69,2.34-9,5.74-14.46,6.38c17.38-20.09,32.54-41.63,43.44-66c10.79-24.12,19.47-49.01,27.3-74.22
		c1.82-5.87,3.4-11.81,5.09-17.72c1.2-0.66,0.44-2.69,2.11-3.02c-0.12,2.31-0.87,4.88,0.32,6.87c3.41,5.66,2.32,11.77,1.27,17.41
		c-2.3,12.29-6.17,24.23-10.32,36.05c-1.26,3.6-3.38,7.17-2.52,11.29c1.84,8.75-1.53,16.28-5.63,23.59
		c-5.72,10.21-13.49,18.95-20.37,28.32c-1.44,1.96-1.84,3.3,0.28,5.15c6.05,5.3,12.17,10.53,18.21,15.83
		c9.33,8.18,17.88,16.99,25.63,26.63c3.7,4.6,7.24,9.34,10.85,14.02c-1.88-16.85-8.87-31.12-20.34-43.18
		c-5.75-6.04-12.26-11.13-19.63-15.13c-1.04-0.57-4.16-1.1-1.58-3.71c4.95-5,7.79-11.46,11.64-17.23c3.02-4.52,6.48-9.19,7.81-14.3
		c2.11-8.09,5.54-16.45,1.35-25.08c-0.49-1,0.11-2.49,0.47-3.8c3.21-11.9,10.35-22.05,14.75-33.42c2.26-5.85,5.81-11.41,1.88-17.87
		c-0.3-0.5-0.31-1.33-0.17-1.94c2.26-9.74,4.09-19.57,12.45-26.62c5.09-4.29,9.5-9.37,14.22-14.09c-0.33-0.4-0.66-0.8-0.98-1.19
		c-4.73,3.17-9.57,6.19-14.17,9.55c-9.27,6.76-18.68,13.4-25.49,22.91c0.13-6.07,2.74-11.55,4.28-17.28
		c2.75-10.28,6.15-20.39,8.71-30.71c2.11-8.5,6.24-15.62,12.23-21.83c11.52-11.2,23.8-21.37,39.03-27.17
		c32.96-12.55,62.23-4.99,88.81,16.67C494.39,107.14,499.77,112.8,505.2,118.42z M420.1,412.3c-0.48-0.15-0.97-0.3-1.45-0.45
		c0.03-3.62,0.98-7.31-0.78-10.8l0.35-0.17l-0.35-0.16c3.89-0.2,7.79-0.41,11.68-0.61c1.95,0.31,4.39,2.09,5.01-1.65
		c1.74,0.03,3.51,0.35,5.23-0.4c-9.48-4.32-19.54-3.94-29.53-4.26c-2.57-0.08-3.47,0.48-3.44,3.2c0.14,11.82,0.06,23.64,0.07,35.45
		c0,0.96-0.44,2.44,0.56,2.74c3.22,0.96,6.63,0.71,9.85,0.13c2.91-0.52,1.36-3.31,1.44-5.02c0.17-3.81-0.12-7.64-0.21-11.46
		c0.51-0.1,1.01-0.2,1.52-0.29c2.22,1.45,4.35,0.09,6.47-0.29c1.42-0.26,2.58-1.21,3.35-2.52c-2.04-0.16-1.53-3.28-3.7-3.23
		C424.14,412.56,422.16,411.2,420.1,412.3z M497.93,251.21c-17.92,11.11-33.22,7.24-48.12-2.75c-7.14-4.79-20.63-7.46-27.61-2.71
		c-9.11,6.2-19.6,8.57-29.56,12.42c-5.12,1.98-10.3,1.74-15.52-0.28c-6.07-2.35-12.29-4.32-19.13-6.7c2.75,11.2,6,21.34,13.51,29.5
		c3.49,3.79,7.73,5.98,13.19,5.77c9.91-0.39,19.04-4.04,28.48-6.37c1.7-0.42,3.25-1.17,5.12-0.22c-1.05,2.11-2.82,2.77-4.31,3.69
		c-7.33,4.53-14.67,9.04-22.07,13.45c-13.83,8.25-15.29,27.76-2.62,37.82c5.19,4.12,10.69,7.87,16.56,11.01
		c12.44,6.64,24.45,6.28,36.03-2.17c6.49-4.74,12.1-10.38,17.38-16.4c10.58-12.07,18-26.3,27.14-39.35
		C494.01,277.04,494.89,264.49,497.93,251.21z M457.22,239.66c0.07,0.36,0.14,0.72,0.21,1.08c5.61,1.32,11.22,2.66,16.84,3.96
		c8.57,1.98,14.66-2.03,14.46-10.76c-0.26-11.87-1.2-23.36-10.15-33.3c-7.92-8.8-15.83-15.67-27.9-17.92
		c-11.15-2.08-13.45-1.7-18.13,8.73c-0.61,1.36-1.13,2.76-1.7,4.13c-4.05,9.72-10.6,17.57-18.25,24.63
		c-1.7,1.57-3.29,2.01-5.76,1.67c-4.32-0.59-8.63-2.28-13.83-1.02c1.06,0.73,1.66,1.15,2.27,1.56c5.36,3.62,12.41,5.37,16.68,9.45
		c6.38,6.11,11.2,5.38,17.98,2.05c4.04-1.99,9.08-0.3,14.77-0.62c-3.59-2.43-6.32-4.28-10.25-6.94c3.82,0,6.24-0.03,8.65,0.01
		c2.51,0.04,4.26-0.98,5.94-2.94c7.17-8.37,21.49-14.91,31.81-2.21c0.31,0.38,0.69,0.73,1.09,1.03c2.44,1.82,1.72,2.94-0.65,4.17
		c-3.97,2.05-8.26,3.6-12.04,6.83c2.45,0.62,4.4,1.12,7.15,1.81C469.45,236.73,463.33,238.2,457.22,239.66z M473.55,444.36
		c58.7-17.01,118.77-25.72,179.76-30.98c-2.42-5.42-4.79-10.15-6.64-15.08c-1.1-2.92-2.78-3.1-5.36-2.66
		c-23.15,3.92-46.25,8.11-69.06,13.75C538.24,417.79,504.74,427.66,473.55,444.36z M335.85,461.29c-0.21-0.63-0.21-1.05-0.41-1.18
		c-0.94-0.63-1.88-1.29-2.9-1.75c-12.62-5.57-25.91-8.29-39.54-10.16c-20.57-2.82-41.19-4-61.92-3.88
		c-6.99,0.04-13.98,0.14-20.96-0.06c-2.92-0.08-5.46,0.57-7.85,2.06c-4.78,2.98-9.52,6.02-14.27,9.04
		c-0.81,0.52-1.88,1.02-1.56,2.18c0.38,1.33,1.65,0.61,2.53,0.77c11.9,2.18,23.97,0.6,35.97,1.79c12.14,1.21,24.43,0.3,36.69,1.02
		c14.43,0.85,29.02-0.74,43.39,0.51C315.42,462.53,325.5,460.79,335.85,461.29z M394.26,437.6c7.65,2.12,7.04-2.35,6.99-6.89
		c-0.15-14.82-0.05-29.65-0.08-44.48c-0.01-3.65,1.05-8.03-0.59-10.75c-1.7-2.81-6.66-1.55-10.05-2.7
		c-0.16-0.05-0.31-0.13-0.47-0.17c-2.59-0.71-3.9-0.28-3.89,2.96c0.1,26.15,0.1,52.31-0.05,78.46c-0.02,3.17,1.26,3.49,3.8,3.32
		c10.5-0.74,21-1.3,31.49-2.09c2.27-0.17,4.49-1.03,7.92-1.86c-3.94-1.79-7-0.45-10.93-1.83c11.17-1.41,21.22-2.69,31.27-3.96
		c-0.02-0.5-0.04-0.99-0.06-1.49c-9.94-1.19-19.81-2.9-29.97-2.95c0.44-1.06,1.18-0.85,1.78-0.83c1.59,0.06,3.61-0.16,3.56-1.83
		c-0.06-2.2-2.32-1.04-3.57-1.14C412.53,438.7,403.66,437.84,394.26,437.6z M340.78,420.4c0.71-1.38-0.01-1.9-0.48-2.55
		c-0.46-0.64-0.72-1.44-1.18-2.07c-5.49-7.5-13.07-12.54-20.99-16.91c-22.33-12.32-46.59-19.79-70.79-27.32
		c-2.8-0.87-6.14-2.68-9.37-0.35c-6.1,4.39-12.16,8.82-17.36,14.3c-0.53,0.56-1.28,1.39-1.19,1.98c0.2,1.39,1.55,0.85,2.43,0.86
		c11.47,0.11,22.73,1.65,33.97,3.96c25.42,5.22,49.69,13.92,73.64,23.67C333.22,417.49,336.79,419.69,340.78,420.4z M451.29,229.32
		c3.72,1.51,7.54,1.32,11.3,0.76c4.22-0.63,7.96-2.34,10.39-6.13c0.88-1.37,1.47-2.56-0.9-3.24
		C465.35,218.77,454.56,223.09,451.29,229.32z M405.46,232.35c-6.24-5.06-12.16-9.1-20.38-8.81
		C389.34,232.57,396.3,235.69,405.46,232.35z M443.38,397.42c2.68,0.88,5.33,1.16,9.24-0.78
		C448.55,396.65,445.92,395.98,443.38,397.42z M471.08,398.11c2.52,0.32,3.65-0.78,5.12-3.07
		C473.51,395.54,472.61,396.97,471.08,398.11z M377.05,148.12c1.26,0.06,3.3,1.03,2.95-1.47
		C378.89,147.21,377.97,147.66,377.05,148.12z"/>
	<path class="st4" d="M567.36,293.88c-21.52,14.12-43.99,26.65-66.17,39.68c-17.83,10.47-34.16,23.16-47.2,39.52
		c-3.04,3.81-5.62,7.99-8.89,12.68c-0.37-7.91,1.94-14.72,2.47-21.7c1.35-17.78,11.89-31.22,20.85-45.51
		c9-14.37,20.62-25.44,36.3-32.24c4.4-1.9,8.41-4.77,11.68-8.41c3.67-4.08,3.36-6.99-1.53-9.48c-3.98-2.03-5.89-5.16-6.8-9.23
		c-2.92-12.96-5.47-26.03-8.85-38.87c-5.74-21.79-19.08-38.99-35.06-54.11c-8.86-8.38-19.97-9.04-31.25-5.05
		c-13.95,4.93-24.93,14.14-33.4,25.87c-18.89,26.17-39.48,51.01-59.17,76.55c-0.92,1.19-1.46,3.09-4.14,2.71
		c6.66-20.82,18.4-38.87,28.58-57.64c6.74-12.43,15.52-23.65,25-34.13c16.32-18.05,37.14-27.79,60.86-32.06
		c6.87-1.24,13.69-3.1,21.44-6.65c-9.68-0.91-17.82,0.51-25.96,1.11c-9.78,0.72-19.52,1.9-29.3,2.5c-5.57,0.34-7.07-1.77-5.23-7.01
		c3.58-10.18,7.47-20.24,11.16-30.38c1.3-3.56,3.54-4.47,7.34-4.16c8.62,0.72,16.5,3.43,23.97,7.52c7.89,4.31,16.61,6.53,24.8,10.08
		c12.56,5.43,21.38,13.69,26.97,26.83c7.19,16.9,11.84,34.47,17.48,51.8c3.81,11.7,9.15,22.86,15.94,33.23
		c7.75,19.46,14.35,39.39,23.83,58.14C564.51,288.26,565.93,291.07,567.36,293.88z"/>
	<path class="st4" d="M637.07,378.31c-12.72,2.35-25.47,4.63-38.17,7.08c-37.84,7.3-75.59,14.95-111.96,28.1
		c-4.45,1.61-8.8,3.5-13.39,4.81c12.23-9.18,25.44-16.57,39.06-23.28c33.71-16.61,68.99-28.44,106.05-34.85
		C624.8,366.2,630.94,372.26,637.07,378.31z"/>
	<path class="st4" d="M194.96,420.14c6.01-4.99,12.06-9.95,18.01-15.02c0.91-0.77,1.77-0.81,2.72-0.76
		c7.74,0.45,15.46,0.01,23.25,0.74c13.46,1.26,26.58,3.89,39.53,7.34c18.25,4.86,35.27,12.66,50.82,23.48
		c0.67,0.47,1.2,1.15,1.77,1.76c0.54,0.58,1.45,1.09,0.99,2.05c-0.45,0.94-1.45,0.67-2.18,0.51c-10.38-2.21-20.7-4.68-31.13-6.63
		c-9.23-1.73-18.6-2.7-27.86-4.32c-14.97-2.6-30.16-3.12-45.22-4.83c-6.41-0.73-12.97-0.18-19.46-0.11
		c-4.11,0.04-8.2,0.06-12.17-1.25C194.34,422.11,194.65,421.13,194.96,420.14z"/>
	<path class="st4" d="M600.11,340.4c-15.89,5.71-31.92,11.08-47.65,17.21c-26.01,10.13-51.18,22.05-74.6,37.39
		c-0.51,0.34-1.13,0.52-1.82,0.83c2.7-10.6,77.55-61.49,109.04-74.31C590.08,327.81,595.09,334.1,600.11,340.4z"/>
	<path class="st4" d="M257.39,343.39c5.46-0.65,9.78-4.04,14.46-6.38c5.21-2.61,9.43-2.78,14.89,0.03
		c18.7,9.62,35.74,21.35,51.36,35.48c11.23,10.16,20.63,21.72,29.57,33.78c0.41,0.55,0.78,1.08-0.15,2.17
		c-3.97-3.08-7.93-6.24-11.98-9.28c-23.93-17.93-49.49-32.93-77.84-42.82c-7.99-2.79-16.02-5.43-24.04-8.14
		C254.13,346.02,256.66,345.4,257.39,343.39z"/>
	<path class="st4" d="M497.93,251.21c-3.04,13.28-3.92,25.83-11.54,36.71c-9.14,13.05-16.57,27.28-27.14,39.35
		c-5.28,6.02-10.89,11.66-17.38,16.4c-11.57,8.45-23.58,8.81-36.03,2.17c-5.87-3.13-11.37-6.89-16.56-11.01
		c-12.67-10.06-11.21-29.57,2.62-37.82c7.4-4.42,14.74-8.92,22.07-13.45c1.49-0.92,3.26-1.58,4.31-3.69
		c-1.87-0.95-3.42-0.2-5.12,0.22c-9.44,2.33-18.57,5.98-28.48,6.37c-5.46,0.21-9.7-1.98-13.19-5.77
		c-7.51-8.16-10.76-18.29-13.51-29.5c6.84,2.37,13.06,4.34,19.13,6.7c5.21,2.02,10.4,2.26,15.52,0.28
		c9.96-3.85,20.45-6.22,29.56-12.42c6.98-4.75,20.47-2.08,27.61,2.71C464.72,258.45,480.01,262.32,497.93,251.21z"/>
	<path class="st4" d="M457.22,239.66c6.11-1.47,12.23-2.94,19.19-4.61c-2.74-0.7-4.7-1.19-7.15-1.81c3.79-3.23,8.08-4.78,12.04-6.83
		c2.37-1.23,3.09-2.35,0.65-4.17c-0.4-0.3-0.78-0.64-1.09-1.03c-10.32-12.7-24.64-6.17-31.81,2.21c-1.68,1.96-3.43,2.98-5.94,2.94
		c-2.42-0.04-4.84-0.01-8.65-0.01c3.93,2.66,6.66,4.51,10.25,6.94c-5.69,0.32-10.73-1.37-14.77,0.62
		c-6.78,3.34-11.61,4.06-17.98-2.05c-4.26-4.08-11.31-5.83-16.68-9.45c-0.61-0.41-1.21-0.83-2.27-1.56
		c5.21-1.26,9.51,0.43,13.83,1.02c2.47,0.34,4.06-0.1,5.76-1.67c7.65-7.06,14.2-14.91,18.25-24.63c0.57-1.37,1.09-2.77,1.7-4.13
		c4.67-10.43,6.98-10.81,18.13-8.73c12.07,2.25,19.98,9.13,27.9,17.92c8.95,9.94,9.89,21.43,10.15,33.3
		c0.19,8.73-5.89,12.74-14.46,10.76c-5.62-1.3-11.23-2.64-16.84-3.96C457.35,240.38,457.29,240.02,457.22,239.66z"/>
	<path class="st4" d="M335.27,182.51c6.81-9.51,16.22-16.15,25.49-22.91c4.6-3.35,9.44-6.38,14.17-9.55c0.33,0.4,0.66,0.8,0.98,1.19
		c-4.72,4.72-9.13,9.8-14.22,14.09c-8.36,7.05-10.19,16.88-12.45,26.62c-0.14,0.61-0.14,1.43,0.17,1.94
		c3.93,6.47,0.38,12.02-1.88,17.87c-4.4,11.37-11.54,21.51-14.75,33.42c-0.36,1.32-0.96,2.8-0.47,3.8
		c4.18,8.62,0.76,16.99-1.35,25.08c-1.33,5.11-4.79,9.77-7.81,14.3c-3.84,5.76-6.69,12.22-11.64,17.23
		c-2.57,2.6,0.54,3.14,1.58,3.71c7.37,4,13.88,9.09,19.63,15.13c11.47,12.06,18.46,26.33,20.34,43.18
		c-3.61-4.68-7.15-9.41-10.85-14.02c-7.75-9.63-16.31-18.44-25.63-26.63c-6.04-5.3-12.16-10.53-18.21-15.83
		c-2.12-1.86-1.72-3.19-0.28-5.15c6.89-9.37,14.66-18.12,20.37-28.32c4.1-7.31,7.46-14.84,5.63-23.59
		c-0.87-4.13,1.25-7.7,2.52-11.29c4.15-11.83,8.02-23.76,10.32-36.05c1.05-5.64,2.14-11.75-1.27-17.41
		c-1.19-1.98-0.44-4.55-0.32-6.87C335.34,182.43,335.27,182.51,335.27,182.51z"/>
	<path class="st4" d="M473.55,444.36c31.19-16.69,64.7-26.56,98.7-34.97c22.81-5.64,45.91-9.84,69.06-13.75
		c2.58-0.44,4.26-0.26,5.36,2.66c1.85,4.93,4.22,9.66,6.64,15.08C592.32,418.64,532.24,427.35,473.55,444.36z"/>
	<path class="st4" d="M335.85,461.29c-10.35-0.5-20.43,1.25-30.84,0.34c-14.37-1.25-28.96,0.34-43.39-0.51
		c-12.25-0.72-24.55,0.18-36.69-1.02c-12-1.19-24.07,0.39-35.97-1.79c-0.88-0.16-2.15,0.57-2.53-0.77
		c-0.33-1.16,0.74-1.66,1.56-2.18c4.75-3.02,9.49-6.06,14.27-9.04c2.39-1.49,4.94-2.14,7.85-2.06c6.98,0.2,13.97,0.1,20.96,0.06
		c20.73-0.12,41.35,1.06,61.92,3.88c13.63,1.87,26.92,4.59,39.54,10.16c1.03,0.45,1.97,1.12,2.9,1.75
		C335.64,460.24,335.65,460.66,335.85,461.29z"/>
	<path class="st4" d="M394.26,437.6c9.4,0.25,18.27,1.11,27.15,1.78c1.25,0.09,3.51-1.07,3.57,1.14c0.05,1.67-1.97,1.89-3.56,1.83
		c-0.61-0.02-1.35-0.23-1.78,0.83c10.15,0.05,20.03,1.76,29.97,2.95c0.02,0.5,0.04,0.99,0.06,1.49c-10.05,1.27-20.1,2.54-31.27,3.96
		c3.93,1.37,6.99,0.04,10.93,1.83c-3.42,0.83-5.64,1.69-7.92,1.86c-10.49,0.79-21,1.36-31.49,2.09c-2.54,0.18-3.82-0.14-3.8-3.32
		c0.15-26.15,0.15-52.31,0.05-78.46c-0.01-3.25,1.3-3.67,3.89-2.96c0.16,0.04,0.31,0.12,0.47,0.17c3.38,1.15,8.35-0.11,10.05,2.7
		c1.64,2.71,0.58,7.1,0.59,10.75c0.04,14.83-0.06,29.65,0.08,44.48C401.3,435.24,401.91,439.71,394.26,437.6z"/>
	<path class="st4" d="M340.78,420.4c-4-0.7-7.56-2.91-11.33-4.44c-23.95-9.74-48.22-18.45-73.64-23.67
		c-11.23-2.31-22.5-3.84-33.97-3.96c-0.88-0.01-2.22,0.53-2.43-0.86c-0.09-0.6,0.66-1.42,1.19-1.98c5.2-5.48,11.26-9.91,17.36-14.3
		c3.23-2.33,6.57-0.52,9.37,0.35c24.19,7.53,48.46,15,70.79,27.32c7.92,4.37,15.5,9.41,20.99,16.91c0.47,0.64,0.72,1.43,1.18,2.07
		C340.77,418.5,341.49,419.02,340.78,420.4z"/>
	<path class="st4" d="M417.87,401.05c1.76,3.49,0.8,7.18,0.78,10.79c-0.77,2.32-0.55,4.66-0.11,7c0.1,3.82,0.38,7.66,0.21,11.47
		c-0.08,1.71,1.47,4.49-1.44,5.02c-3.22,0.58-6.63,0.83-9.85-0.13c-1-0.3-0.56-1.78-0.56-2.74c-0.02-11.82,0.06-23.64-0.07-35.45
		c-0.03-2.72,0.87-3.28,3.44-3.2c9.99,0.32,20.05-0.06,29.53,4.26c-1.72,0.75-3.49,0.43-5.22,0.4c-1.78,0.21-4.19-1.47-5.02,1.65
		c-3.89,0.2-7.79,0.41-11.68,0.61c-2.56-0.42-5.11-0.38-8.46,0.13C412.75,401.5,415.31,401.46,417.87,401.05z"/>
	<path class="st4" d="M451.29,229.32c3.27-6.23,14.05-10.55,20.79-8.61c2.37,0.68,1.78,1.87,0.9,3.24
		c-2.42,3.79-6.17,5.5-10.39,6.13C458.84,230.64,455.01,230.83,451.29,229.32z"/>
	<path class="st4" d="M405.46,232.35c-9.17,3.34-16.12,0.22-20.38-8.81C393.31,223.25,399.22,227.29,405.46,232.35z"/>
	<path class="st4" d="M420.1,412.3c2.06-1.1,4.04,0.26,6.07,0.22c2.18-0.05,1.66,3.07,3.7,3.23c-0.77,1.31-1.93,2.27-3.35,2.52
		c-2.12,0.39-4.25,1.74-6.47,0.3C420.07,416.48,420.08,414.39,420.1,412.3z"/>
	<path class="st4" d="M471.08,398.11c1.53-1.13,2.43-2.57,5.12-3.07C474.73,397.32,473.61,398.43,471.08,398.11z"/>
	<path class="st4" d="M377.05,148.12c0.92-0.45,1.83-0.91,2.95-1.47C380.36,149.14,378.32,148.17,377.05,148.12z"/>
</g>
</svg>
