<?xml version="1.0" encoding="utf-8"?>
<!-- Generator: Adobe Illustrator 25.2.0, SVG Export Plug-In . SVG Version: 6.00 Build 0)  -->
<svg version="1.1" id="Layer_1" xmlns="http://www.w3.org/2000/svg" xmlns:xlink="http://www.w3.org/1999/xlink" x="0px" y="0px"
	 viewBox="0 0 792 665.54" style="enable-background:new 0 0 792 665.54;" xml:space="preserve">
<style type="text/css">
	.st0{fill:#ED1C24;}
</style>
<rect x="182" y="122.54" class="st0" width="7.5" height="7.5"/>
<rect x="185.75" y="286.54" class="st0" width="9.62" height="9.62"/>
<rect x="190.56" y="531.54" class="st0" width="14" height="14"/>
<rect x="412" y="107.54" class="st0" width="9" height="9"/>
<rect x="421" y="199.54" class="st0" width="9" height="9"/>
<rect x="370" y="377.54" class="st0" width="6.5" height="6.5"/>
<rect x="345" y="499.54" class="st0" width="6.5" height="6.5"/>
<rect x="469" y="485.54" class="st0" width="18" height="18"/>
<rect x="478" y="562.04" class="st0" width="3.5" height="3.5"/>
<rect x="539" y="316.54" class="st0" width="10" height="10"/>
<rect x="549" y="187.54" class="st0" width="8" height="8"/>
<rect x="571" y="68.54" class="st0" width="8" height="8"/>
<rect x="639" y="231.54" class="st0" width="7" height="7"/>
<rect x="617" y="433.54" class="st0" width="7" height="7"/>
<rect x="607" y="521.54" class="st0" width="10" height="10"/>
<rect x="579" y="608.54" class="st0" width="12" height="12"/>
<rect x="248" y="32.04" class="st0" width="2.5" height="2.5"/>
<rect x="293" y="122.54" class="st0" width="3.75" height="3.75"/>
<rect x="401" y="34.54" class="st0" width="8" height="8"/>
<rect x="495" y="137.54" class="st0" width="10.5" height="10.5"/>
<rect x="591" y="96.04" class="st0" width="16" height="16"/>
<rect x="620.5" y="194.04" class="st0" width="14.5" height="14.5"/>
<rect x="345" y="258.54" class="st0" width="13" height="13"/>
<rect x="226" y="353.54" class="st0" width="9" height="9"/>
<rect x="268" y="629.54" class="st0" width="18" height="18"/>
<rect x="327" y="131.54" class="st0" width="10.62" height="10.62"/>
<rect x="462" y="635.04" class="st0" width="7" height="7"/>
<rect x="465.5" y="17.54" class="st0" width="7" height="7"/>
<rect x="305" y="61.04" class="st0" width="7.5" height="7.5"/>
<rect x="348.25" y="173.54" class="st0" width="7.5" height="7.5"/>
<rect x="256" y="253.54" class="st0" width="12" height="12"/>
<rect x="174" y="449.04" class="st0" width="2.5" height="2.5"/>
<rect x="64.47" y="221.62" class="st0" width="9.92" height="9.92"/>
<rect x="54.56" y="277.48" class="st0" width="19.83" height="19.83"/>
<rect x="59.96" y="358.04" class="st0" width="4.5" height="4.5"/>
<rect x="69.43" y="449.04" class="st0" width="18.46" height="18.46"/>
<rect x="681.59" y="360.29" class="st0" width="11.71" height="11.71"/>
<rect x="714.02" y="573.87" class="st0" width="2.25" height="2.25"/>
<rect x="714.02" y="68.54" class="st0" width="2.25" height="2.25"/>
<rect x="716.27" y="265.54" class="st0" width="2.25" height="2.25"/>
</svg>
