<?xml version="1.0" encoding="utf-8"?>
<!-- Generator: Adobe Illustrator 25.2.0, SVG Export Plug-In . SVG Version: 6.00 Build 0)  -->
<svg version="1.1" id="Layer_1" xmlns="http://www.w3.org/2000/svg" xmlns:xlink="http://www.w3.org/1999/xlink" x="0px" y="0px"
	 viewBox="0 0 131.23 93.96" style="enable-background:new 0 0 131.23 93.96;" xml:space="preserve">
<style type="text/css">
	.st0{fill:none;stroke:#000000;stroke-miterlimit:10;}
	.st1{fill:#FF0000;}
	.steh{fill:#FF0000;}
	.st2{fill:#999999;}
</style>
<g>
	<g>
		<path d="M67.28,63.55c14.83,0,26.95,11.8,27.48,26.5H39.8C40.33,75.35,52.45,63.55,67.28,63.55 M67.28,62.55
			c-15.74,0-28.5,12.76-28.5,28.5h57C95.78,75.31,83.02,62.55,67.28,62.55L67.28,62.55z"/>
	</g>
	<line class="st0" x1="95.78" y1="91.05" x2="38.78" y2="91.05"/>
</g>
<g>
	<polygon points="72.05,88.77 72.2,88.91 109.49,51.83 106.61,48.93 69.32,86.02 69.33,86.03 72.29,86.32 	"/>
	<polygon class="st1" points="72.05,88.77 69.33,86.03 68.23,85.93 67.83,89.99 71.9,90.39 	"/>
	<polygon points="72.29,86.32 69.33,86.03 72.05,88.77 	"/>
</g>
<rect x="-0.51" y="40.37" transform="matrix(0.7663 0.6425 -0.6425 0.7663 30.5189 1.4451)" class="st2" width="27.57" height="4.6"/>
<rect x="23.01" y="21.15" transform="matrix(0.5998 0.8001 -0.8001 0.5998 33.4849 -20.0588)" class="st2" width="27.57" height="4.6"/>
<rect x="52.07" y="14.81" transform="matrix(-1.836970e-16 1 -1 -1.836970e-16 82.9652 -48.7525)" class="st2" width="27.57" height="4.6"/>
<rect x="79.73" y="21.19" transform="matrix(-0.5 0.866 -0.866 -0.5 160.6234 -45.7573)" class="st2" width="27.57" height="4.6"/>
<rect x="105.7" y="36.52" transform="matrix(-0.7071 0.7071 -0.7071 -0.7071 231.4333 -18.218)" class="steh" width="27.57" height="4.6"/>
</svg>
